<svg width="43" height="38" viewBox="0 0 43 38" fill="none" xmlns="http://www.w3.org/2000/svg">
<path d="M21.1899 0.022274C20.9567 0.0940781 20.8931 0.193806 20.7829 0.654552C20.7362 0.846031 20.5878 1.46634 20.4543 2.0328L20.2083 3.06399V3.8678V4.67161L20.149 4.77134C20.0705 4.90697 19.9433 4.97878 19.7419 5.00271C19.5426 5.02465 19.4239 5.09047 19.3455 5.21613C19.2904 5.3019 19.2861 5.33181 19.2755 5.57914C19.2649 5.8125 19.2564 5.86237 19.2077 5.9601C19.142 6.09573 19.0338 6.19945 18.8875 6.27126L18.7773 6.32511L17.9187 6.3271C17.0007 6.3291 16.8968 6.33708 16.265 6.44877C15.0863 6.6582 13.9436 7.11097 12.8942 7.78314C12.5825 7.9826 12.3281 8.16011 11.8002 8.55304C10.1614 9.76773 9.19043 10.3482 8.19188 10.7132C7.56223 10.9445 7.0407 11.0443 6.4704 11.0443C5.89799 11.0443 5.43794 10.9405 4.91216 10.6912C3.9751 10.2484 3.1186 9.30898 2.40838 7.94669C2.32994 7.7971 2.26422 7.67543 2.25998 7.67743C2.2409 7.69937 2.35538 8.28378 2.4529 8.65078C2.97655 10.6334 4.0917 12.0455 5.57362 12.602C6.15027 12.8174 6.73965 12.9132 7.36082 12.8932C7.83996 12.8773 8.22368 12.8075 8.70706 12.6539C9.52964 12.3886 10.1805 12.0495 11.9635 10.9585C13.6807 9.90935 14.6496 9.41071 15.7986 8.98387C16.5513 8.70463 17.3802 8.47725 17.8148 8.43137C18.3554 8.37353 18.9724 8.5331 19.4388 8.85223C19.6126 8.9719 19.884 9.23518 20.0027 9.40472C20.2168 9.70391 20.3567 10.0629 20.397 10.412C20.414 10.5456 20.4203 13.1665 20.4203 18.9767C20.4203 27.1863 20.4203 27.3558 20.3779 27.6291C20.3377 27.9063 20.2295 28.6483 19.8797 31.0797C19.7822 31.7698 19.6932 32.3702 19.6868 32.4101L19.6741 32.4859H19.3222C18.9066 32.4859 18.7519 32.5118 18.5314 32.6175C18.3257 32.7132 18.101 32.9227 18.0056 33.1042C17.8848 33.3395 17.8763 33.3934 17.8763 34.0516V34.652L17.4374 34.6759C16.9456 34.7018 16.6212 34.7377 16.212 34.8115C14.7259 35.0808 13.3881 35.6792 12.1839 36.6126C12.0801 36.6944 11.7303 37.0056 11.4101 37.3067L10.8271 37.8513H21.3532H31.8792L31.275 37.2868C30.6814 36.7343 30.3846 36.489 29.9394 36.1918C29.0829 35.6213 28.0568 35.1706 27.0667 34.9332C26.4413 34.7836 25.9452 34.7118 25.271 34.6759L24.8301 34.652V34.0516C24.8301 33.3934 24.8216 33.3395 24.7007 33.1042C24.6053 32.9227 24.3806 32.7132 24.175 32.6175C23.9545 32.5118 23.7997 32.4859 23.3842 32.4859H23.0323L23.0195 32.4101C23.0132 32.3702 22.9241 31.7698 22.8266 31.0797C22.4768 28.6483 22.3687 27.9063 22.3284 27.6291C22.286 27.3558 22.286 27.1863 22.286 18.9767C22.286 13.1665 22.2924 10.5456 22.3093 10.412C22.3666 9.91733 22.5998 9.45658 22.975 9.09955C23.4033 8.68867 23.9078 8.46927 24.5333 8.4214C24.9742 8.38749 25.8752 8.60091 26.9077 8.98387C28.0568 9.41071 29.0256 9.90935 30.7429 10.9585C32.5258 12.0495 33.1767 12.3886 33.9993 12.6539C34.4827 12.8075 34.8664 12.8773 35.3455 12.8932C37.0924 12.9531 38.5659 12.1034 39.5093 10.4918C39.9312 9.76973 40.281 8.77045 40.4209 7.87289C40.4358 7.76918 40.4485 7.68142 40.4464 7.67743C40.4421 7.67543 40.3764 7.7971 40.298 7.94669C39.4309 9.61016 38.3624 10.6214 37.1433 10.9326C36.3441 11.138 35.4748 11.0662 34.5145 10.7132C33.5159 10.3482 32.5449 9.76773 30.9061 8.55304C29.8843 7.79511 29.4179 7.5039 28.6589 7.15285C27.7748 6.74197 26.9522 6.50661 25.9007 6.36301C25.695 6.33508 25.483 6.3291 24.7877 6.3271L23.929 6.32511L23.8188 6.27126C23.6725 6.19945 23.5644 6.09573 23.4987 5.9601C23.4499 5.86237 23.4414 5.8125 23.4308 5.57914C23.4202 5.33181 23.416 5.3019 23.3609 5.21613C23.2824 5.09047 23.1637 5.02465 22.9644 5.00271C22.763 4.97878 22.6358 4.90697 22.5574 4.77134L22.498 4.67161V3.8678V3.06399L22.2224 1.90315C21.8196 0.203777 21.845 0.303509 21.7687 0.197796C21.6542 0.0362358 21.3977 -0.0415535 21.1899 0.022274Z" fill="#444445"/>
<path d="M6.94105 13.3979C6.94953 13.4138 7.68095 14.9038 8.57137 16.7089C9.45967 18.5139 10.8292 21.2904 11.6115 22.882L13.0362 25.7742L6.84565 25.7801C3.44085 25.7821 0.650856 25.7801 0.646616 25.7762C0.640256 25.7722 1.4162 24.1845 2.37022 22.2498C3.32212 20.317 4.18498 18.5618 4.28887 18.3544C4.39063 18.1449 4.98 16.9482 5.59906 15.6916C6.21811 14.437 6.72057 13.4078 6.71845 13.4039C6.71421 13.4019 6.20327 14.3393 5.57998 15.4882C4.95668 16.637 4.34187 17.774 4.21042 18.0153C4.07898 18.2566 3.07832 20.1016 1.98649 22.1141L0 25.7742L0.0508813 25.9138C0.116603 26.1033 0.349809 26.5341 0.496092 26.7415C0.8247 27.2003 1.24871 27.6092 1.75116 27.9462C2.87691 28.7042 4.53479 29.2048 6.3432 29.3365C7.3693 29.4103 8.8809 29.2028 10.0427 28.8298C10.8144 28.5805 11.5225 28.2335 12.0907 27.8286C12.2115 27.7408 12.4299 27.5573 12.5762 27.4197C13.0574 26.9689 13.3775 26.5062 13.6341 25.8918L13.6743 25.7901L12.5783 23.7676C11.9762 22.6547 11.3084 21.422 11.0942 21.0271C10.8801 20.6322 10.6066 20.1295 10.4879 19.9101C10.3671 19.6907 9.52328 18.133 8.61165 16.4496C7.70003 14.7661 6.94741 13.3839 6.94105 13.3779C6.93469 13.3719 6.93469 13.3819 6.94105 13.3979Z" fill="#939047"/>
<path d="M35.1717 14.461C34.8495 15.0554 33.993 16.6371 33.2679 17.9754C32.5429 19.3138 31.7924 20.696 31.6037 21.0471C31.4129 21.3981 30.7556 22.6088 30.143 23.7378L29.032 25.7902L29.0723 25.8919C29.3289 26.5062 29.649 26.969 30.1302 27.4197C31.0461 28.2794 32.369 28.8658 34.0841 29.1749C34.9003 29.3225 35.7357 29.3824 36.3632 29.3365C38.1716 29.2049 39.8295 28.7042 40.9552 27.9463C41.4577 27.6092 41.8817 27.2003 42.2103 26.7416C42.3566 26.5341 42.5898 26.1033 42.6555 25.9138L42.7064 25.7742L40.7199 22.1142C39.6281 20.1017 38.6274 18.2567 38.496 18.0153C38.3645 17.774 37.7497 16.6371 37.1264 15.4882C36.5031 14.3393 35.9922 13.4019 35.9879 13.4039C35.9858 13.4079 36.4883 14.4371 37.1073 15.6917C37.7264 16.9482 38.3158 18.145 38.4175 18.3544C38.5214 18.5618 39.3843 20.3171 40.3362 22.2498C41.2902 24.1845 42.0661 25.7722 42.0598 25.7762C42.0555 25.7802 39.2655 25.7822 35.8607 25.7802L29.6702 25.7742L31.0843 22.902C35.1866 14.5747 35.7696 13.3899 35.7632 13.3859C35.7611 13.3839 35.4961 13.8666 35.1717 14.461Z" fill="#939047"/>
</svg>
