<svg width="29" height="29" viewBox="0 0 29 29" fill="none" xmlns="http://www.w3.org/2000/svg">
<path d="M22.243 5.017C21.8989 5.017 21.5624 5.11905 21.2763 5.31024C20.9902 5.50144 20.7671 5.77319 20.6355 6.09113C20.5038 6.40907 20.4693 6.75893 20.5364 7.09646C20.6036 7.43398 20.7693 7.74402 21.0126 7.98737C21.256 8.23071 21.566 8.39643 21.9035 8.46357C22.2411 8.5307 22.5909 8.49625 22.9089 8.36455C23.2268 8.23285 23.4986 8.00983 23.6898 7.72369C23.8809 7.43755 23.983 7.10114 23.983 6.757C23.983 6.29552 23.7997 5.85295 23.4734 5.52663C23.1471 5.20032 22.7045 5.017 22.243 5.017ZM28.913 8.526C28.8848 7.32293 28.6595 6.13263 28.246 5.0025C27.8773 4.03554 27.3035 3.15995 26.564 2.436C25.846 1.69277 24.9684 1.12256 23.9975 0.7685C22.8703 0.342433 21.6787 0.111954 20.474 0.0869999C18.937 -7.67124e-08 18.444 0 14.5 0C10.556 0 10.063 -7.67124e-08 8.526 0.0869999C7.32127 0.111954 6.12965 0.342433 5.0025 0.7685C4.03343 1.12614 3.15655 1.69586 2.436 2.436C1.69277 3.15401 1.12256 4.03164 0.7685 5.0025C0.342433 6.12965 0.111954 7.32127 0.0869999 8.526C-7.67124e-08 10.063 0 10.556 0 14.5C0 18.444 -7.67124e-08 18.937 0.0869999 20.474C0.111954 21.6787 0.342433 22.8703 0.7685 23.9975C1.12256 24.9684 1.69277 25.846 2.436 26.564C3.15655 27.3041 4.03343 27.8739 5.0025 28.2315C6.12965 28.6576 7.32127 28.888 8.526 28.913C10.063 29 10.556 29 14.5 29C18.444 29 18.937 29 20.474 28.913C21.6787 28.888 22.8703 28.6576 23.9975 28.2315C24.9684 27.8774 25.846 27.3072 26.564 26.564C27.3068 25.8427 27.8811 24.9664 28.246 23.9975C28.6595 22.8674 28.8848 21.6771 28.913 20.474C28.913 18.937 29 18.444 29 14.5C29 10.556 29 10.063 28.913 8.526ZM26.303 20.3C26.2924 21.2204 26.1257 22.1324 25.81 22.997C25.5785 23.628 25.2066 24.1982 24.7225 24.6645C24.2522 25.1437 23.6832 25.5148 23.055 25.752C22.1904 26.0677 21.2784 26.2344 20.358 26.245C18.908 26.3175 18.3715 26.332 14.558 26.332C10.7445 26.332 10.208 26.332 8.758 26.245C7.80229 26.2629 6.85066 26.1157 5.945 25.81C5.34438 25.5607 4.80147 25.1905 4.35 24.7225C3.86873 24.2567 3.50152 23.686 3.277 23.055C2.92299 22.178 2.72664 21.2453 2.697 20.3C2.697 18.85 2.61 18.3135 2.61 14.5C2.61 10.6865 2.61 10.15 2.697 8.7C2.7035 7.75903 2.87528 6.82652 3.2045 5.945C3.45977 5.33297 3.85158 4.7874 4.35 4.35C4.79053 3.85144 5.33497 3.45549 5.945 3.19C6.82885 2.87106 7.7604 2.70437 8.7 2.697C10.15 2.697 10.6865 2.61 14.5 2.61C18.3135 2.61 18.85 2.61 20.3 2.697C21.2204 2.70756 22.1324 2.87426 22.997 3.19C23.6559 3.43455 24.2473 3.83213 24.7225 4.35C25.1977 4.79541 25.569 5.33996 25.81 5.945C26.1323 6.82795 26.2991 7.76008 26.303 8.7C26.3755 10.15 26.39 10.6865 26.39 14.5C26.39 18.3135 26.3755 18.85 26.303 20.3ZM14.5 7.0615C13.0294 7.06437 11.5927 7.50306 10.3713 8.32216C9.15 9.14125 8.19885 10.304 7.63807 11.6634C7.07729 13.0229 6.93205 14.5181 7.2207 15.96C7.50935 17.402 8.21894 18.7261 9.25981 19.7649C10.3007 20.8038 11.6261 21.5108 13.0686 21.7966C14.5112 22.0825 16.0061 21.9343 17.3644 21.3709C18.7228 20.8075 19.8837 19.854 20.7004 18.6311C21.5171 17.4082 21.953 15.9706 21.953 14.5C21.9549 13.5214 21.7633 12.5521 21.3893 11.6478C21.0152 10.7435 20.4661 9.92207 19.7735 9.23077C19.0808 8.53947 18.2583 7.99193 17.3533 7.61965C16.4483 7.24736 15.4786 7.05767 14.5 7.0615ZM14.5 19.3285C13.545 19.3285 12.6115 19.0453 11.8174 18.5147C11.0234 17.9842 10.4045 17.2301 10.039 16.3478C9.67359 15.4655 9.57797 14.4946 9.76428 13.558C9.95059 12.6214 10.4105 11.761 11.0857 11.0857C11.761 10.4105 12.6214 9.95059 13.558 9.76428C14.4946 9.57797 15.4655 9.67359 16.3478 10.039C17.2301 10.4045 17.9842 11.0234 18.5148 11.8174C19.0453 12.6115 19.3285 13.545 19.3285 14.5C19.3285 15.1341 19.2036 15.762 18.961 16.3478C18.7183 16.9336 18.3626 17.4659 17.9143 17.9143C17.4659 18.3626 16.9336 18.7183 16.3478 18.961C15.762 19.2036 15.1341 19.3285 14.5 19.3285Z" fill="#939047"/>
</svg>
