<svg width="29" height="29" viewBox="0 0 29 29" fill="none" xmlns="http://www.w3.org/2000/svg">
<path fill-rule="evenodd" clip-rule="evenodd" d="M2.14056 0H26.8522C28.0366 0 29 0.936186 29 2.08897V26.9065C29 28.062 28.0366 29 26.854 29H2.14056C0.960625 29 0 28.062 0 26.9065V2.08897C0 0.936186 0.960625 0 2.14056 0ZM8.60938 10.8718H4.30016V24.7106H8.60938V10.8718ZM8.94378 6.47633C8.94378 5.1015 7.82638 3.98406 6.45159 3.98406C6.12409 3.98371 5.79972 4.04791 5.49704 4.17299C5.19436 4.29808 4.9193 4.4816 4.68759 4.71307C4.45589 4.94453 4.27207 5.2194 4.14666 5.52195C4.02124 5.8245 3.95669 6.14881 3.95669 6.47633C3.95836 7.13768 4.22188 7.77145 4.6896 8.23902C5.15732 8.70658 5.79117 8.96988 6.4525 8.97131C7.82638 8.97131 8.94378 7.85115 8.94378 6.47633ZM11.3064 10.8718H11.3L11.3064 10.8691V10.8718ZM11.3064 10.8718V24.7079H15.6038V17.8619C15.6038 16.0584 15.9482 14.3093 18.1866 14.3093C20.3924 14.3093 20.4214 16.3756 20.4214 17.9797V24.7116H24.7198V17.1206C24.7198 13.3949 23.9159 10.5283 19.5605 10.5283C17.4598 10.5283 16.0569 11.6756 15.4824 12.7632H15.4253V10.8718H11.3064Z" fill="#939047"/>
</svg>
