<svg width="23" height="34" viewBox="0 0 23 34" fill="none" xmlns="http://www.w3.org/2000/svg">
<path fill-rule="evenodd" clip-rule="evenodd" d="M22.3493 8.01512L22.3493 8.01514C22.4189 8.20053 22.4885 8.38592 22.5441 8.55705C22.8781 9.64094 23.0451 10.3255 22.9895 10.5537V12.094C22.9895 14.971 21.2476 17.7922 19.5402 20.5577L19.4826 20.651C19.3497 20.8738 19.2142 21.0993 19.0778 21.3263L19.0773 21.3272L19.0773 21.3273C18.5853 22.1462 18.0814 22.9849 17.6457 23.7886L17.1447 24.4732C16.9777 24.7013 16.8664 24.8724 16.7551 25.0435L16.7551 25.0435L16.755 25.0436C16.6749 25.249 16.5658 25.4249 16.4487 25.6137L16.4486 25.6138C16.4031 25.6872 16.3564 25.7625 16.3097 25.8423C16.1881 26.1331 16.0369 26.3937 15.8777 26.6681L15.8777 26.6682L15.8777 26.6682C15.8183 26.7705 15.7579 26.8748 15.6974 26.9832C14.9738 28.1812 14.3058 29.3792 13.6378 30.5772C13.2315 31.3683 12.7955 32.1291 12.3516 32.9038C12.1873 33.1905 12.0219 33.4791 11.8565 33.7718C11.8009 33.943 11.6896 34 11.5226 34C11.4112 34 11.2442 33.8859 11.1886 33.7718L10.2423 32.2315C9.64581 31.2259 9.03604 30.2134 8.42217 29.1941L8.42195 29.1938L8.42193 29.1937C7.25992 27.2643 6.0832 25.3105 4.95414 23.3322C4.75932 22.9899 4.55058 22.6477 4.34183 22.3054C4.13309 21.9631 3.92435 21.6208 3.72952 21.2785C2.05959 18.5403 0.389651 15.745 0.0556642 13.0638C0 12.7785 0 12.2081 0 12.151V10.7248C0.723639 3.36577 6.40142 0 11.3556 0C15.0851 0 19.8166 1.9396 22.0432 7.18792C22.0432 7.24497 22.0988 7.35906 22.1545 7.47315C22.2101 7.64427 22.2797 7.82964 22.3493 8.01502L22.3493 8.01512ZM11.5782 6.9027C9.35163 6.9027 7.12505 8.32887 7.12505 11.0671V11.9799C7.12505 12.3222 7.12505 12.8356 7.23638 13.1779C8.29401 15.9161 10.5206 16.2014 11.4112 16.2014C13.9718 16.2014 16.0314 14.0906 16.0314 11.5235C16.087 8.95639 14.0831 6.9027 11.5782 6.9027Z" fill="#939047"/>
</svg>
