<svg width="203" height="48" viewBox="0 0 203 48" fill="none" xmlns="http://www.w3.org/2000/svg">
<path d="M73.38 27.132C73.24 27.2533 73.044 27.3747 72.792 27.496C72.54 27.608 72.26 27.7107 71.952 27.804C71.6533 27.8973 71.3407 27.972 71.014 28.028C70.6967 28.084 70.398 28.112 70.118 28.112C69.306 28.112 68.5733 27.986 67.92 27.734C67.276 27.482 66.7207 27.132 66.254 26.684C65.7967 26.236 65.442 25.7087 65.19 25.102C64.9473 24.4953 64.826 23.8373 64.826 23.128C64.826 22.288 64.9613 21.5367 65.232 20.874C65.512 20.202 65.89 19.6373 66.366 19.18C66.8513 18.7133 67.4067 18.3633 68.032 18.13C68.6573 17.8873 69.32 17.766 70.02 17.766C70.608 17.766 71.154 17.836 71.658 17.976C72.162 18.116 72.6053 18.2933 72.988 18.508L72.526 19.754C72.3393 19.642 72.106 19.5393 71.826 19.446C71.5553 19.3527 71.2753 19.278 70.986 19.222C70.6967 19.1567 70.426 19.124 70.174 19.124C69.5767 19.124 69.0353 19.2173 68.55 19.404C68.0647 19.5813 67.6493 19.8427 67.304 20.188C66.9587 20.524 66.6927 20.9347 66.506 21.42C66.3193 21.896 66.226 22.4327 66.226 23.03C66.226 23.5807 66.3193 24.0847 66.506 24.542C66.6927 24.9993 66.9587 25.396 67.304 25.732C67.6493 26.0587 68.06 26.3153 68.536 26.502C69.0213 26.6793 69.5533 26.768 70.132 26.768C70.4773 26.768 70.818 26.7353 71.154 26.67C71.49 26.5953 71.7793 26.4927 72.022 26.362V24.346H70.006V23.044H73.38V27.132ZM75.6617 28L80.0857 17.458H80.1697L84.5797 28H83.0257L79.7217 19.586L80.6877 18.956L76.9917 28H75.6617ZM78.2517 24.164H82.0177L82.4657 25.34H77.8597L78.2517 24.164ZM89.7901 17.878C90.8074 17.878 91.6054 18.088 92.1841 18.508C92.7721 18.9187 93.0661 19.5627 93.0661 20.44C93.0661 20.972 92.9447 21.434 92.7021 21.826C92.4594 22.218 92.1187 22.526 91.6801 22.75C91.2507 22.974 90.7421 23.1 90.1541 23.128L89.9581 22.428C90.6394 22.4467 91.2507 22.568 91.7921 22.792C92.3334 23.016 92.7627 23.3287 93.0801 23.73C93.3974 24.1313 93.5561 24.6073 93.5561 25.158C93.5561 25.662 93.4627 26.096 93.2761 26.46C93.0894 26.8147 92.8374 27.1087 92.5201 27.342C92.2027 27.566 91.8434 27.734 91.4421 27.846C91.0407 27.9487 90.6254 28 90.1961 28H87.1861V17.878H89.7901ZM90.0701 22.316C90.6301 22.316 91.0361 22.162 91.2881 21.854C91.5401 21.5367 91.6661 21.154 91.6661 20.706C91.6661 20.174 91.5027 19.7867 91.1761 19.544C90.8494 19.3013 90.4107 19.18 89.8601 19.18H88.5441V22.316H90.0701ZM90.1261 26.74C90.4994 26.74 90.8401 26.684 91.1481 26.572C91.4654 26.46 91.7127 26.2873 91.8901 26.054C92.0767 25.8207 92.1701 25.5267 92.1701 25.172C92.1701 24.78 92.0627 24.472 91.8481 24.248C91.6427 24.024 91.3767 23.8653 91.0501 23.772C90.7234 23.6693 90.3874 23.618 90.0421 23.618H88.5441V26.74H90.1261ZM99.2284 17.878C99.7417 17.878 100.213 17.948 100.642 18.088C101.081 18.2187 101.459 18.4193 101.776 18.69C102.103 18.9513 102.355 19.278 102.532 19.67C102.719 20.0527 102.812 20.5007 102.812 21.014C102.812 21.4153 102.752 21.8073 102.63 22.19C102.518 22.5727 102.327 22.9227 102.056 23.24C101.786 23.548 101.431 23.8 100.992 23.996C100.563 24.1827 100.031 24.276 99.3964 24.276H97.8984V28H96.5404V17.878H99.2284ZM99.3684 22.974C99.7697 22.974 100.101 22.9133 100.362 22.792C100.633 22.6707 100.843 22.5167 100.992 22.33C101.142 22.134 101.249 21.924 101.314 21.7C101.38 21.476 101.412 21.266 101.412 21.07C101.412 20.8647 101.375 20.6547 101.3 20.44C101.235 20.216 101.123 20.0107 100.964 19.824C100.815 19.6373 100.614 19.4833 100.362 19.362C100.12 19.2407 99.821 19.18 99.4664 19.18H97.8984V22.974H99.3684ZM101.034 23.744L103.68 28H102.112L99.4244 23.786L101.034 23.744ZM106.469 17.878H107.827V28H106.469V17.878ZM111.435 17.878H118.015V19.18H112.793V22.26H117.455V23.562H112.793V26.698H118.211V28H111.435V17.878ZM121.267 17.878H122.625V26.698H127.763V28H121.267V17.878ZM135.806 28V17.556H135.82L141.126 25.088L140.552 24.976L145.844 17.556H145.872V28H144.528V20.636L144.612 21.322L140.79 26.726H140.762L136.884 21.322L137.122 20.692V28H135.806ZM149.481 17.878H156.061V19.18H150.839V22.26H155.501V23.562H150.839V26.698H156.257V28H149.481V17.878ZM168.077 28.322L160.251 20.384L160.643 20.482L160.671 28H159.313V17.57H159.383L167.125 25.536L166.803 25.466L166.775 17.878H168.119V28.322H168.077ZM171.73 28V17.878H174.488C175.487 17.878 176.336 18.032 177.036 18.34C177.746 18.648 178.315 19.054 178.744 19.558C179.174 20.062 179.486 20.622 179.682 21.238C179.888 21.8447 179.99 22.4513 179.99 23.058C179.99 23.8233 179.855 24.5093 179.584 25.116C179.323 25.7227 178.959 26.2407 178.492 26.67C178.026 27.0993 177.489 27.4307 176.882 27.664C176.285 27.888 175.65 28 174.978 28H171.73ZM173.088 26.698H174.712C175.272 26.698 175.786 26.614 176.252 26.446C176.728 26.278 177.139 26.0353 177.484 25.718C177.839 25.4007 178.114 25.0133 178.31 24.556C178.506 24.0893 178.604 23.562 178.604 22.974C178.604 22.3487 178.502 21.8027 178.296 21.336C178.091 20.86 177.811 20.4633 177.456 20.146C177.102 19.8287 176.7 19.5907 176.252 19.432C175.804 19.264 175.333 19.18 174.838 19.18H173.088V26.698ZM182.971 17.878H189.551V19.18H184.329V22.26H188.991V23.562H184.329V26.698H189.747V28H182.971V17.878ZM198.04 19.684C197.695 19.5067 197.317 19.3527 196.906 19.222C196.495 19.0913 196.094 19.026 195.702 19.026C195.161 19.026 194.727 19.152 194.4 19.404C194.083 19.656 193.924 19.992 193.924 20.412C193.924 20.7293 194.027 21 194.232 21.224C194.437 21.4387 194.708 21.6253 195.044 21.784C195.38 21.9427 195.73 22.092 196.094 22.232C196.411 22.3533 196.724 22.4887 197.032 22.638C197.34 22.7873 197.615 22.974 197.858 23.198C198.11 23.422 198.306 23.6973 198.446 24.024C198.595 24.3507 198.67 24.7567 198.67 25.242C198.67 25.774 198.535 26.2593 198.264 26.698C198.003 27.1367 197.625 27.482 197.13 27.734C196.635 27.986 196.047 28.112 195.366 28.112C194.918 28.112 194.489 28.0607 194.078 27.958C193.677 27.8553 193.303 27.7247 192.958 27.566C192.613 27.398 192.305 27.2253 192.034 27.048L192.636 25.984C192.86 26.1427 193.117 26.2967 193.406 26.446C193.695 26.586 193.999 26.7027 194.316 26.796C194.633 26.88 194.941 26.922 195.24 26.922C195.557 26.922 195.87 26.866 196.178 26.754C196.495 26.6327 196.757 26.4507 196.962 26.208C197.167 25.9653 197.27 25.6433 197.27 25.242C197.27 24.8967 197.177 24.612 196.99 24.388C196.813 24.1547 196.575 23.9587 196.276 23.8C195.977 23.632 195.66 23.4827 195.324 23.352C195.007 23.2307 194.685 23.1 194.358 22.96C194.031 22.8107 193.728 22.6333 193.448 22.428C193.168 22.2133 192.944 21.952 192.776 21.644C192.608 21.336 192.524 20.9627 192.524 20.524C192.524 19.992 192.65 19.53 192.902 19.138C193.163 18.7367 193.518 18.424 193.966 18.2C194.414 17.9667 194.927 17.8407 195.506 17.822C196.159 17.822 196.733 17.9013 197.228 18.06C197.732 18.2187 198.175 18.4147 198.558 18.648L198.04 19.684Z" fill="#444445"/>
<path d="M28.0982 4.69348C27.866 4.76528 27.8026 4.86501 27.6929 5.32576C27.6464 5.51723 27.4987 6.13754 27.3657 6.704L27.1208 7.7352V8.53901V9.34282L27.0617 9.44254C26.9836 9.57817 26.857 9.64998 26.6564 9.67392C26.458 9.69585 26.3398 9.76168 26.2617 9.88733C26.2068 9.9731 26.2026 10.003 26.192 10.2503C26.1815 10.4837 26.173 10.5336 26.1245 10.6313C26.0591 10.7669 25.9514 10.8707 25.8057 10.9425L25.696 10.9963L24.8411 10.9983C23.9271 11.0003 23.8236 11.0083 23.1946 11.12C22.021 11.3294 20.8832 11.7822 19.8383 12.4543C19.528 12.6538 19.2747 12.8313 18.7491 13.2242C17.1174 14.4389 16.1506 15.0194 15.1564 15.3844C14.5295 15.6157 14.0102 15.7155 13.4424 15.7155C12.8725 15.7155 12.4144 15.6117 11.8909 15.3624C10.9579 14.9196 10.1051 13.9802 9.39796 12.6179C9.31986 12.4683 9.25442 12.3466 9.2502 12.3486C9.2312 12.3706 9.34519 12.955 9.44229 13.322C9.96368 15.3046 11.074 16.7167 12.5495 17.2732C13.1236 17.4886 13.7105 17.5844 14.329 17.5644C14.806 17.5485 15.1881 17.4787 15.6694 17.3251C16.4884 17.0598 17.1364 16.7207 18.9117 15.6297C20.6215 14.5806 21.5861 14.0819 22.7302 13.6551C23.4796 13.3758 24.3049 13.1485 24.7376 13.1026C25.2759 13.0447 25.8902 13.2043 26.3546 13.5234C26.5277 13.6431 26.7979 13.9064 26.9161 14.0759C27.1293 14.3751 27.2686 14.7341 27.3087 15.0832C27.3256 15.2168 27.3319 17.8377 27.3319 23.6479C27.3319 31.8575 27.3319 32.027 27.2897 32.3003C27.2496 32.5775 27.1419 33.3195 26.7936 35.7509C26.6965 36.441 26.6079 37.0414 26.6015 37.0813L26.5889 37.1571H26.2385C25.8247 37.1571 25.6707 37.183 25.4511 37.2887C25.2464 37.3845 25.0226 37.5939 24.9276 37.7754C24.8073 38.0107 24.7989 38.0646 24.7989 38.7228V39.3232L24.3619 39.3471C23.8722 39.373 23.5492 39.4089 23.1418 39.4827C21.6621 39.752 20.3302 40.3504 19.1312 41.2838C19.0277 41.3656 18.6795 41.6768 18.3607 41.9779L17.7802 42.5225H28.2607H38.7412L38.1396 41.958C37.5485 41.4055 37.253 41.1602 36.8097 40.863C35.9569 40.2925 34.9353 39.8418 33.9495 39.6044C33.3268 39.4548 32.8328 39.383 32.1616 39.3471L31.7225 39.3232V38.7228C31.7225 38.0646 31.7141 38.0107 31.5938 37.7754C31.4988 37.5939 31.275 37.3845 31.0703 37.2887C30.8507 37.183 30.6966 37.1571 30.2829 37.1571H29.9325L29.9198 37.0813C29.9135 37.0414 29.8248 36.441 29.7277 35.7509C29.3795 33.3195 29.2718 32.5775 29.2317 32.3003C29.1895 32.027 29.1895 31.8575 29.1895 23.6479C29.1895 17.8377 29.1958 15.2168 29.2127 15.0832C29.2697 14.5885 29.5019 14.1278 29.8755 13.7708C30.3019 13.3599 30.8043 13.1405 31.427 13.0926C31.8661 13.0587 32.7632 13.2721 33.7912 13.6551C34.9353 14.0819 35.8999 14.5806 37.6097 15.6297C39.385 16.7207 40.033 17.0598 40.852 17.3251C41.3333 17.4787 41.7154 17.5485 42.1924 17.5644C43.9318 17.6243 45.3988 16.7746 46.3382 15.163C46.7582 14.4409 47.1065 13.4417 47.2458 12.5441C47.2606 12.4404 47.2733 12.3526 47.2712 12.3486C47.267 12.3466 47.2015 12.4683 47.1234 12.6179C46.2601 14.2814 45.1962 15.2926 43.9824 15.6038C43.1866 15.8092 42.3212 15.7374 41.365 15.3844C40.3708 15.0194 39.404 14.4389 37.7723 13.2242C36.7548 12.4663 36.2904 12.1751 35.5347 11.8241C34.6545 11.4132 33.8355 11.1778 32.7885 11.0342C32.5838 11.0063 32.3727 11.0003 31.6803 10.9983L30.8254 10.9963L30.7156 10.9425C30.57 10.8707 30.4623 10.7669 30.3969 10.6313C30.3483 10.5336 30.3399 10.4837 30.3293 10.2503C30.3188 10.003 30.3146 9.9731 30.2597 9.88733C30.1816 9.76168 30.0634 9.69585 29.865 9.67392C29.6644 9.64998 29.5378 9.57817 29.4597 9.44254L29.4006 9.34282V8.53901V7.7352L29.1261 6.57436C28.7251 4.87498 28.7504 4.97471 28.6744 4.869C28.5604 4.70744 28.305 4.62965 28.0982 4.69348Z" fill="#444445"/>
<path d="M13.911 18.0691C13.9194 18.085 14.6477 19.575 15.5342 21.3801C16.4187 23.1851 17.7823 25.9616 18.5612 27.5532L19.9797 30.4454L13.816 30.4513C10.4259 30.4533 7.64804 30.4513 7.64382 30.4474C7.63748 30.4434 8.41006 28.8557 9.35995 26.921C10.3077 24.9882 11.1669 23.233 11.2703 23.0256C11.3716 22.8161 11.9584 21.6194 12.5748 20.3628C13.1912 19.1082 13.6915 18.079 13.6893 18.0751C13.6851 18.0731 13.1764 19.0105 12.5558 20.1594C11.9352 21.3083 11.3231 22.4452 11.1922 22.6865C11.0613 22.9278 10.065 24.7728 8.97788 26.7853L7 30.4454L7.05066 30.585C7.1161 30.7745 7.34829 31.2053 7.49394 31.4127C7.82113 31.8715 8.2433 32.2804 8.74358 32.6175C9.86445 33.3754 11.5151 33.876 13.3157 34.0077C14.3374 34.0815 15.8424 33.874 16.9992 33.501C17.7675 33.2517 18.4726 32.9047 19.0383 32.4998C19.1586 32.412 19.376 32.2285 19.5217 32.0909C20.0008 31.6401 20.3196 31.1774 20.575 30.563L20.6151 30.4613L19.5238 28.4388C18.9243 27.3259 18.2594 26.0932 18.0462 25.6983C17.833 25.3034 17.5607 24.8007 17.4425 24.5813C17.3222 24.3619 16.482 22.8042 15.5744 21.1208C14.6667 19.4373 13.9173 18.0551 13.911 18.0491C13.9047 18.0431 13.9047 18.0531 13.911 18.0691Z" fill="#939047"/>
<path d="M42.0194 19.1322C41.6985 19.7266 40.8457 21.3083 40.1238 22.6466C39.4019 23.985 38.6547 25.3672 38.4668 25.7183C38.2768 26.0693 37.6224 27.28 37.0124 28.409L35.9063 30.4614L35.9464 30.5631C36.2018 31.1774 36.5206 31.6402 36.9997 32.0909C37.9116 32.9506 39.2288 33.537 40.9365 33.8461C41.7492 33.9937 42.5809 34.0536 43.2057 34.0077C45.0063 33.8761 46.657 33.3754 47.7778 32.6175C48.2781 32.2804 48.7003 31.8715 49.0275 31.4128C49.1731 31.2053 49.4053 30.7745 49.4708 30.585L49.5214 30.4454L47.5435 26.7854C46.4564 24.7729 45.4601 22.9279 45.3292 22.6865C45.1984 22.4452 44.5862 21.3083 43.9656 20.1594C43.345 19.0105 42.8363 18.0731 42.8321 18.0751C42.83 18.0791 43.3302 19.1083 43.9466 20.3629C44.563 21.6194 45.1498 22.8162 45.2511 23.0256C45.3546 23.233 46.2137 24.9883 47.1615 26.921C48.1114 28.8557 48.8839 30.4434 48.8776 30.4474C48.8734 30.4514 46.0955 30.4534 42.7054 30.4514L36.5417 30.4454L37.9496 27.5732C42.0342 19.2459 42.6147 18.0611 42.6083 18.0571C42.6062 18.0551 42.3424 18.5378 42.0194 19.1322Z" fill="#939047"/>
<rect x="0.4" y="0.4" width="55.2" height="47.2" stroke="#444445" stroke-width="0.8"/>
</svg>
