<svg width="272" height="48" viewBox="0 0 272 48" fill="none" xmlns="http://www.w3.org/2000/svg">
<path d="M28.0982 4.69348C27.866 4.76528 27.8026 4.86501 27.6929 5.32576C27.6464 5.51723 27.4987 6.13754 27.3657 6.704L27.1208 7.7352V8.53901V9.34282L27.0617 9.44254C26.9836 9.57817 26.857 9.64998 26.6564 9.67392C26.458 9.69585 26.3398 9.76168 26.2617 9.88733C26.2068 9.9731 26.2026 10.003 26.192 10.2503C26.1815 10.4837 26.173 10.5336 26.1245 10.6313C26.0591 10.7669 25.9514 10.8707 25.8057 10.9425L25.696 10.9963L24.8411 10.9983C23.9271 11.0003 23.8236 11.0083 23.1946 11.12C22.021 11.3294 20.8832 11.7822 19.8383 12.4543C19.528 12.6538 19.2747 12.8313 18.7491 13.2242C17.1174 14.4389 16.1506 15.0194 15.1564 15.3844C14.5295 15.6157 14.0102 15.7155 13.4424 15.7155C12.8725 15.7155 12.4144 15.6117 11.8909 15.3624C10.9579 14.9196 10.1051 13.9802 9.39796 12.6179C9.31986 12.4683 9.25442 12.3466 9.2502 12.3486C9.2312 12.3706 9.34519 12.955 9.44229 13.322C9.96368 15.3046 11.074 16.7167 12.5495 17.2732C13.1236 17.4886 13.7105 17.5844 14.329 17.5644C14.806 17.5485 15.1881 17.4787 15.6694 17.3251C16.4884 17.0598 17.1364 16.7207 18.9117 15.6297C20.6215 14.5806 21.5861 14.0819 22.7302 13.6551C23.4796 13.3758 24.3049 13.1485 24.7376 13.1026C25.2759 13.0447 25.8902 13.2043 26.3546 13.5234C26.5277 13.6431 26.7979 13.9064 26.9161 14.0759C27.1293 14.3751 27.2686 14.7341 27.3087 15.0832C27.3256 15.2168 27.3319 17.8377 27.3319 23.6479C27.3319 31.8575 27.3319 32.027 27.2897 32.3003C27.2496 32.5775 27.1419 33.3195 26.7936 35.7509C26.6965 36.441 26.6079 37.0414 26.6015 37.0813L26.5889 37.1571H26.2385C25.8247 37.1571 25.6707 37.183 25.4511 37.2887C25.2464 37.3845 25.0226 37.5939 24.9276 37.7754C24.8073 38.0107 24.7989 38.0646 24.7989 38.7228V39.3232L24.3619 39.3471C23.8722 39.373 23.5492 39.4089 23.1418 39.4827C21.6621 39.752 20.3302 40.3504 19.1312 41.2838C19.0277 41.3656 18.6795 41.6768 18.3607 41.9779L17.7802 42.5225H28.2607H38.7412L38.1396 41.958C37.5485 41.4055 37.253 41.1602 36.8097 40.863C35.9569 40.2925 34.9353 39.8418 33.9495 39.6044C33.3268 39.4548 32.8328 39.383 32.1616 39.3471L31.7225 39.3232V38.7228C31.7225 38.0646 31.7141 38.0107 31.5938 37.7754C31.4988 37.5939 31.275 37.3845 31.0703 37.2887C30.8507 37.183 30.6966 37.1571 30.2829 37.1571H29.9325L29.9198 37.0813C29.9135 37.0414 29.8248 36.441 29.7277 35.7509C29.3795 33.3195 29.2718 32.5775 29.2317 32.3003C29.1895 32.027 29.1895 31.8575 29.1895 23.6479C29.1895 17.8377 29.1958 15.2168 29.2127 15.0832C29.2697 14.5885 29.5019 14.1278 29.8755 13.7708C30.3019 13.3599 30.8043 13.1405 31.427 13.0926C31.8661 13.0587 32.7632 13.2721 33.7912 13.6551C34.9353 14.0819 35.8999 14.5806 37.6097 15.6297C39.385 16.7207 40.033 17.0598 40.852 17.3251C41.3333 17.4787 41.7154 17.5485 42.1924 17.5644C43.9318 17.6243 45.3988 16.7746 46.3382 15.163C46.7582 14.4409 47.1065 13.4417 47.2458 12.5441C47.2606 12.4404 47.2733 12.3526 47.2712 12.3486C47.267 12.3466 47.2015 12.4683 47.1234 12.6179C46.2601 14.2814 45.1962 15.2926 43.9824 15.6038C43.1866 15.8092 42.3212 15.7374 41.365 15.3844C40.3708 15.0194 39.404 14.4389 37.7723 13.2242C36.7548 12.4663 36.2904 12.1751 35.5347 11.8241C34.6545 11.4132 33.8355 11.1778 32.7885 11.0342C32.5838 11.0063 32.3727 11.0003 31.6803 10.9983L30.8254 10.9963L30.7156 10.9425C30.57 10.8707 30.4623 10.7669 30.3969 10.6313C30.3483 10.5336 30.3399 10.4837 30.3293 10.2503C30.3188 10.003 30.3146 9.9731 30.2597 9.88733C30.1816 9.76168 30.0634 9.69585 29.865 9.67392C29.6644 9.64998 29.5378 9.57817 29.4597 9.44254L29.4006 9.34282V8.53901V7.7352L29.1261 6.57436C28.7251 4.87498 28.7504 4.97471 28.6744 4.869C28.5604 4.70744 28.305 4.62965 28.0982 4.69348Z" fill="white"/>
<path d="M13.911 18.0691C13.9194 18.085 14.6477 19.575 15.5342 21.3801C16.4187 23.1851 17.7823 25.9616 18.5612 27.5532L19.9797 30.4454L13.816 30.4513C10.4259 30.4533 7.64804 30.4513 7.64382 30.4474C7.63748 30.4434 8.41006 28.8557 9.35995 26.921C10.3077 24.9882 11.1669 23.233 11.2703 23.0256C11.3716 22.8161 11.9584 21.6194 12.5748 20.3628C13.1912 19.1082 13.6915 18.079 13.6893 18.0751C13.6851 18.0731 13.1764 19.0105 12.5558 20.1594C11.9352 21.3083 11.3231 22.4452 11.1922 22.6865C11.0613 22.9278 10.065 24.7728 8.97788 26.7853L7 30.4454L7.05066 30.585C7.1161 30.7745 7.34829 31.2053 7.49394 31.4127C7.82113 31.8715 8.2433 32.2804 8.74358 32.6175C9.86445 33.3754 11.5151 33.876 13.3157 34.0077C14.3374 34.0815 15.8424 33.874 16.9992 33.501C17.7675 33.2517 18.4726 32.9047 19.0383 32.4998C19.1586 32.412 19.376 32.2285 19.5217 32.0909C20.0008 31.6401 20.3196 31.1774 20.575 30.563L20.6151 30.4613L19.5238 28.4388C18.9243 27.3259 18.2594 26.0932 18.0462 25.6983C17.833 25.3034 17.5607 24.8007 17.4425 24.5813C17.3222 24.3619 16.482 22.8042 15.5744 21.1208C14.6667 19.4373 13.9173 18.0551 13.911 18.0491C13.9047 18.0431 13.9047 18.0531 13.911 18.0691Z" fill="#EDEDED"/>
<path d="M42.0194 19.1321C41.6985 19.7265 40.8457 21.3082 40.1238 22.6465C39.4019 23.9849 38.6547 25.3671 38.4668 25.7182C38.2768 26.0692 37.6224 27.2799 37.0124 28.4088L35.9063 30.4612L35.9464 30.563C36.2018 31.1773 36.5206 31.64 36.9997 32.0908C37.9116 32.9505 39.2288 33.5369 40.9365 33.846C41.7492 33.9936 42.5809 34.0535 43.2057 34.0076C45.0063 33.8759 46.657 33.3753 47.7778 32.6174C48.2781 32.2803 48.7003 31.8714 49.0275 31.4127C49.1731 31.2052 49.4053 30.7744 49.4708 30.5849L49.5214 30.4453L47.5435 26.7853C46.4564 24.7727 45.4601 22.9278 45.3292 22.6864C45.1984 22.4451 44.5862 21.3082 43.9656 20.1593C43.345 19.0104 42.8363 18.073 42.8321 18.075C42.83 18.079 43.3302 19.1082 43.9466 20.3627C44.563 21.6193 45.1498 22.8161 45.2511 23.0255C45.3546 23.2329 46.2137 24.9881 47.1615 26.9209C48.1114 28.8556 48.8839 30.4433 48.8776 30.4473C48.8734 30.4513 46.0955 30.4533 42.7054 30.4513L36.5417 30.4453L37.9496 27.5731C42.0342 19.2458 42.6147 18.061 42.6083 18.057C42.6062 18.055 42.3424 18.5377 42.0194 19.1321Z" fill="#EDEDED"/>
<rect x="0.4" y="0.4" width="55.2" height="47.2" stroke="white" stroke-width="0.8"/>
<path d="M81.73 30.822C81.54 30.9867 81.274 31.1513 80.932 31.316C80.59 31.468 80.21 31.6073 79.792 31.734C79.3867 31.8607 78.9623 31.962 78.519 32.038C78.0883 32.114 77.683 32.152 77.303 32.152C76.201 32.152 75.2067 31.981 74.32 31.639C73.446 31.297 72.6923 30.822 72.059 30.214C71.4383 29.606 70.957 28.8903 70.615 28.067C70.2857 27.2437 70.121 26.3507 70.121 25.388C70.121 24.248 70.3047 23.2283 70.672 22.329C71.052 21.417 71.565 20.6507 72.211 20.03C72.8697 19.3967 73.6233 18.9217 74.472 18.605C75.3207 18.2757 76.22 18.111 77.17 18.111C77.968 18.111 78.709 18.206 79.393 18.396C80.077 18.586 80.6787 18.8267 81.198 19.118L80.571 20.809C80.3177 20.657 80.001 20.5177 79.621 20.391C79.2537 20.2643 78.8737 20.163 78.481 20.087C78.0883 19.9983 77.721 19.954 77.379 19.954C76.5683 19.954 75.8337 20.0807 75.175 20.334C74.5163 20.5747 73.9527 20.9293 73.484 21.398C73.0153 21.854 72.6543 22.4113 72.401 23.07C72.1477 23.716 72.021 24.4443 72.021 25.255C72.021 26.0023 72.1477 26.6863 72.401 27.307C72.6543 27.9277 73.0153 28.466 73.484 28.922C73.9527 29.3653 74.51 29.7137 75.156 29.967C75.8147 30.2077 76.5367 30.328 77.322 30.328C77.7907 30.328 78.253 30.2837 78.709 30.195C79.165 30.0937 79.5577 29.9543 79.887 29.777V27.041H77.151V25.274H81.73V30.822ZM85.4916 32L91.4956 17.693H91.6096L97.5946 32H95.4856L91.0016 20.581L92.3126 19.726L87.2966 32H85.4916ZM89.0066 26.794H94.1176L94.7256 28.39H88.4746L89.0066 26.794ZM105.331 18.263C106.711 18.263 107.794 18.548 108.58 19.118C109.378 19.6753 109.777 20.5493 109.777 21.74C109.777 22.462 109.612 23.089 109.283 23.621C108.953 24.153 108.491 24.571 107.896 24.875C107.313 25.179 106.623 25.35 105.825 25.388L105.559 24.438C106.483 24.4633 107.313 24.628 108.048 24.932C108.782 25.236 109.365 25.6603 109.796 26.205C110.226 26.7497 110.442 27.3957 110.442 28.143C110.442 28.827 110.315 29.416 110.062 29.91C109.808 30.3913 109.466 30.7903 109.036 31.107C108.605 31.411 108.117 31.639 107.573 31.791C107.028 31.9303 106.464 32 105.882 32H101.797V18.263H105.331ZM105.711 24.286C106.471 24.286 107.022 24.077 107.364 23.659C107.706 23.2283 107.877 22.709 107.877 22.101C107.877 21.379 107.655 20.8533 107.212 20.524C106.768 20.1947 106.173 20.03 105.426 20.03H103.64V24.286H105.711ZM105.787 30.29C106.293 30.29 106.756 30.214 107.174 30.062C107.604 29.91 107.94 29.6757 108.181 29.359C108.434 29.0423 108.561 28.6433 108.561 28.162C108.561 27.63 108.415 27.212 108.124 26.908C107.845 26.604 107.484 26.3887 107.041 26.262C106.597 26.1227 106.141 26.053 105.673 26.053H103.64V30.29H105.787ZM118.805 18.263C119.502 18.263 120.141 18.358 120.724 18.548C121.319 18.7253 121.832 18.9977 122.263 19.365C122.706 19.7197 123.048 20.163 123.289 20.695C123.542 21.2143 123.669 21.8223 123.669 22.519C123.669 23.0637 123.587 23.5957 123.422 24.115C123.27 24.6343 123.01 25.1093 122.643 25.54C122.276 25.958 121.794 26.3 121.199 26.566C120.616 26.8193 119.894 26.946 119.033 26.946H117V32H115.157V18.263H118.805ZM118.995 25.179C119.54 25.179 119.989 25.0967 120.344 24.932C120.711 24.7673 120.996 24.5583 121.199 24.305C121.402 24.039 121.547 23.754 121.636 23.45C121.725 23.146 121.769 22.861 121.769 22.595C121.769 22.3163 121.718 22.0313 121.617 21.74C121.528 21.436 121.376 21.1573 121.161 20.904C120.958 20.6507 120.686 20.4417 120.344 20.277C120.015 20.1123 119.609 20.03 119.128 20.03H117V25.179H118.995ZM121.256 26.224L124.847 32H122.719L119.071 26.281L121.256 26.224ZM129.296 18.263H131.139V32H129.296V18.263ZM136.7 18.263H145.63V20.03H138.543V24.21H144.87V25.977H138.543V30.233H145.896V32H136.7V18.263ZM150.71 18.263H152.553V30.233H159.526V32H150.71V18.263ZM171.771 32V17.826H171.79L178.991 28.048L178.212 27.896L185.394 17.826H185.432V32H183.608V22.006L183.722 22.937L178.535 30.271H178.497L173.234 22.937L173.557 22.082V32H171.771ZM190.994 18.263H199.924V20.03H192.837V24.21H199.164V25.977H192.837V30.233H200.19V32H190.994V18.263ZM216.898 32.437L206.277 21.664L206.809 21.797L206.847 32H205.004V17.845H205.099L215.606 28.656L215.169 28.561L215.131 18.263H216.955V32.437H216.898ZM222.52 32V18.263H226.263C227.619 18.263 228.771 18.472 229.721 18.89C230.684 19.308 231.457 19.859 232.039 20.543C232.622 21.227 233.046 21.987 233.312 22.823C233.591 23.6463 233.73 24.4697 233.73 25.293C233.73 26.3317 233.547 27.2627 233.179 28.086C232.825 28.9093 232.331 29.6123 231.697 30.195C231.064 30.7777 230.336 31.2273 229.512 31.544C228.702 31.848 227.84 32 226.928 32H222.52ZM224.363 30.233H226.567C227.327 30.233 228.024 30.119 228.657 29.891C229.303 29.663 229.861 29.3337 230.329 28.903C230.811 28.4723 231.184 27.9467 231.45 27.326C231.716 26.6927 231.849 25.977 231.849 25.179C231.849 24.3303 231.71 23.5893 231.431 22.956C231.153 22.31 230.773 21.7717 230.291 21.341C229.81 20.9103 229.265 20.5873 228.657 20.372C228.049 20.144 227.41 20.03 226.738 20.03H224.363V30.233ZM238.441 18.263H247.371V20.03H240.284V24.21H246.611V25.977H240.284V30.233H247.637V32H238.441V18.263ZM259.556 20.714C259.088 20.4733 258.575 20.2643 258.017 20.087C257.46 19.9097 256.915 19.821 256.383 19.821C255.649 19.821 255.06 19.992 254.616 20.334C254.186 20.676 253.97 21.132 253.97 21.702C253.97 22.1327 254.11 22.5 254.388 22.804C254.667 23.0953 255.034 23.3487 255.49 23.564C255.946 23.7793 256.421 23.982 256.915 24.172C257.346 24.3367 257.77 24.5203 258.188 24.723C258.606 24.9257 258.98 25.179 259.309 25.483C259.651 25.787 259.917 26.1607 260.107 26.604C260.31 27.0473 260.411 27.5983 260.411 28.257C260.411 28.979 260.228 29.6377 259.86 30.233C259.506 30.8283 258.993 31.297 258.321 31.639C257.65 31.981 256.852 32.152 255.927 32.152C255.319 32.152 254.737 32.0823 254.179 31.943C253.635 31.8037 253.128 31.6263 252.659 31.411C252.191 31.183 251.773 30.9487 251.405 30.708L252.222 29.264C252.526 29.4793 252.875 29.6883 253.267 29.891C253.66 30.081 254.072 30.2393 254.502 30.366C254.933 30.48 255.351 30.537 255.756 30.537C256.187 30.537 256.611 30.461 257.029 30.309C257.46 30.1443 257.815 29.8973 258.093 29.568C258.372 29.2387 258.511 28.8017 258.511 28.257C258.511 27.7883 258.385 27.402 258.131 27.098C257.891 26.7813 257.568 26.5153 257.162 26.3C256.757 26.072 256.326 25.8693 255.87 25.692C255.44 25.5273 255.003 25.35 254.559 25.16C254.116 24.9573 253.704 24.7167 253.324 24.438C252.944 24.1467 252.64 23.792 252.412 23.374C252.184 22.956 252.07 22.4493 252.07 21.854C252.07 21.132 252.241 20.505 252.583 19.973C252.938 19.4283 253.419 19.004 254.027 18.7C254.635 18.3833 255.332 18.2123 256.117 18.187C257.004 18.187 257.783 18.2947 258.454 18.51C259.138 18.7253 259.74 18.9913 260.259 19.308L259.556 20.714Z" fill="white"/>
</svg>
