<svg width="27" height="27" viewBox="0 0 27 27" fill="none" xmlns="http://www.w3.org/2000/svg">
<path d="M25.927 23.8248L25.1293 24.6225C21.858 27.8938 14.6372 27.2962 7.16722 19.8249C-0.302729 12.3536 -0.901633 5.12773 2.36969 1.85637L3.1611 1.05993C3.51743 0.704878 3.99995 0.505523 4.50297 0.505523C5.00599 0.505523 5.48851 0.704878 5.84485 1.05993L8.61289 3.82799C8.96275 4.17961 9.16134 4.65404 9.16627 5.15003C9.17121 5.64603 8.9821 6.12431 8.63931 6.48282C7.78912 7.33845 7.25878 8.46026 7.13715 9.66032C7.01551 10.8604 7.30998 12.0658 7.97121 13.0746C9.53836 15.4198 11.5536 17.4321 13.9011 18.9958C14.9069 19.6571 16.1091 19.9533 17.307 19.8349C18.5049 19.7165 19.6259 19.1907 20.4828 18.3453C20.8406 17.9984 21.3202 17.8058 21.8185 17.8089C22.3169 17.8119 22.7941 18.0104 23.1476 18.3616L25.9157 21.1297C26.0941 21.3055 26.236 21.5149 26.3331 21.7457C26.4303 21.9766 26.4809 22.2244 26.4819 22.4749C26.483 22.7254 26.4345 22.9736 26.3393 23.2052C26.244 23.4369 26.1039 23.6475 25.927 23.8248Z" fill="#939047"/>
</svg>
