<svg width="29" height="29" viewBox="0 0 29 29" fill="none" xmlns="http://www.w3.org/2000/svg">
<path d="M20.8028 16.2135C20.5315 16.0787 18.7683 15.2697 18.497 15.1348C18.2257 15 17.9544 15 17.6832 15.2697C17.4119 15.5393 16.8694 16.3483 16.5981 16.618C16.4625 16.8876 16.1912 16.8876 15.9199 16.7528C14.9705 16.3483 14.021 15.809 13.2072 15.1348C12.529 14.4607 11.8508 13.6517 11.3083 12.8427C11.1727 12.573 11.3083 12.3034 11.4439 12.1685C11.5796 12.0337 11.7152 11.764 11.9865 11.6292C12.1221 11.4944 12.2578 11.2247 12.2578 11.0899C12.3934 10.9551 12.3934 10.6854 12.2578 10.5506C12.1221 10.4157 11.4439 8.79775 11.1727 8.1236C11.037 7.17978 10.7658 7.17978 10.4945 7.17978H9.81631C9.54504 7.17978 9.13813 7.44944 9.0025 7.58427C8.18868 8.39326 7.78178 9.33708 7.78178 10.4157C7.91741 11.6292 8.32432 12.8427 9.13813 13.9213C10.6301 16.0787 12.529 17.8315 14.8348 18.9101C15.513 19.1798 16.0555 19.4494 16.7337 19.5843C17.4119 19.8539 18.0901 19.8539 18.9039 19.7191C19.8533 19.5843 20.6672 18.9101 21.2097 18.1011C21.481 17.5618 21.481 17.0225 21.3453 16.4831L20.8028 16.2135ZM24.1937 3.94382C18.9039 -1.31461 10.3589 -1.31461 5.06907 3.94382C0.728729 8.25843 -0.0850843 14.8652 2.8989 20.1236L1 27L8.18868 25.1124C10.2232 26.191 12.3934 26.7303 14.5636 26.7303C22.0235 26.7303 27.9915 20.7978 27.9915 13.382C28.1271 9.8764 26.6351 6.50562 24.1937 3.94382ZM20.5315 22.8202C18.7683 23.8989 16.7337 24.573 14.5636 24.573C12.529 24.573 10.6301 24.0337 8.86686 23.0899L8.45995 22.8202L4.25525 23.8989L5.34034 19.8539L5.06907 19.4494C1.81381 14.0562 3.44144 7.31461 8.73123 3.94382C14.021 0.573034 20.8028 2.32584 24.058 7.44944C27.3133 12.7079 25.8213 19.5843 20.5315 22.8202Z" fill="#939047"/>
</svg>
